<?xml version="1.0" ?><svg width="200px" height="200px" viewBox="0 0 200 200" id="Layer_1" style="enable-background:new 0 0 200 200;" version="1.1" xml:space="preserve" xmlns="http://www.w3.org/2000/svg" xmlns:xlink="http://www.w3.org/1999/xlink"><style type="text/css">
	.st0{fill:#71A517;}
	.st1{fill:#FAD50A;}
	.st2{fill:#FAD50A;stroke:#2B2B2B;stroke-width:5;stroke-linecap:round;stroke-linejoin:round;stroke-miterlimit:10;}
	.st3{fill:#FFFFFF;stroke:#2B2B2B;stroke-width:5;stroke-linecap:round;stroke-linejoin:round;stroke-miterlimit:10;}
	.st4{fill:#7B3D72;}
	.st5{fill:#F2433B;}
	.st6{fill:#F2433B;stroke:#2B2B2B;stroke-width:6;stroke-linecap:round;stroke-linejoin:round;stroke-miterlimit:10;}
	.st7{fill:#FFFFFF;stroke:#2B2B2B;stroke-width:6;stroke-linecap:round;stroke-linejoin:round;stroke-miterlimit:10;}
	.st8{fill:#DE3727;stroke:#2B2B2B;stroke-width:6;stroke-linecap:round;stroke-linejoin:round;stroke-miterlimit:10;}
	.st9{fill:#8EBF04;}
	.st10{fill:#8EBF04;stroke:#2B2B2B;stroke-width:6;stroke-linecap:round;stroke-linejoin:round;stroke-miterlimit:10;}
	.st11{fill:#003A52;}
	.st12{fill:#7B3D72;stroke:#2B2B2B;stroke-width:6;stroke-linecap:round;stroke-linejoin:round;stroke-miterlimit:10;}
	.st13{fill:#2B2B2B;}
	.st14{fill:none;stroke:#2B2B2B;stroke-width:6;stroke-linecap:round;stroke-linejoin:round;stroke-miterlimit:10;}
	.st15{fill:#F78D0F;}
	.st16{fill:#F78D0F;stroke:#2B2B2B;stroke-width:6;stroke-linecap:round;stroke-linejoin:round;stroke-miterlimit:10;}
</style><g><circle class="st1" cx="100" cy="100" r="78.6"/><g><path class="st2" d="M100,146.5c35.6,0,64.5-28.9,64.5-64.5h-129C35.5,117.6,64.4,146.5,100,146.5z"/><path class="st3" d="M100,82l-40.2,36.5c0,0-14.6-11-15.8-36.5H100z"/><path class="st3" d="M101.2,82l40.2,36.5c0,0,14.6-11,15.8-36.5H101.2z"/><path class="st3" d="M67.7,124l32.9-32.9l34.1,32.9C134.7,124,100.6,154.4,67.7,124z"/><line class="st3" x1="95.7" x2="87.2" y1="107" y2="116.7"/><line class="st3" x1="61.5" x2="72" y1="105.3" y2="96.5"/><line class="st3" x1="125.1" x2="133.3" y1="94.2" y2="101.5"/></g></g></svg>